<svg xmlns="http://www.w3.org/2000/svg" xmlns:xlink="http://www.w3.org/1999/xlink" viewBox="0 0 90.31 90.26"><defs><style>.cls-1,.cls-4{fill:none;}.cls-2{isolation:isolate;}.cls-3{clip-path:url(#clip-path);}.cls-4{stroke:#000;stroke-miterlimit:10;stroke-width:0.25px;}.cls-5{clip-path:url(#clip-path-2);}</style><clipPath id="clip-path"><path class="cls-1" d="M2.56,30.6C3,29.19,3.81,27.35,4.42,26c.44-1,1.16-2.24,1.66-3.2a44.68,44.68,0,0,1,2.69-4.16,38.26,38.26,0,0,1,3.07-3.77c1.44-1.5,3.48-3.38,5-4.74A30.87,30.87,0,0,0,7.1,24.36C.25,44.42,11.75,70,32.77,81.45,11.75,70,.25,44.42,7.1,24.36a30.87,30.87,0,0,1,9.78-14.24A45.08,45.08,0,0,1,22.41,6.3c.84-.47,2-1.12,2.85-1.53,1.33-.63,3.14-1.38,4.5-1.93a41.65,41.65,0,0,1,6.35-1.79A44.08,44.08,0,0,1,41.54.28,44.94,44.94,0,0,1,76.36,12.7a44,44,0,0,1,4.11,4.53,44.93,44.93,0,0,1,4.14,6.24A47.41,47.41,0,0,1,87.17,29c.33.91.79,2.13,1.06,3.06.37,1.31.82,3.07,1.1,4.4a49.78,49.78,0,0,1,.81,6.78A44.52,44.52,0,0,1,90,49.11a48.23,48.23,0,0,1-1.21,7.06c-.36,1.35-.91,3.14-1.38,4.46-.36,1-1,2.36-1.39,3.37a31,31,0,0,1-2.34,4.41,63.5,63.5,0,0,1-4.13,5.76A37.49,37.49,0,0,1,76,77.89a46.35,46.35,0,0,1-5.33,4.3,55,55,0,0,1-5.65,3.32c-1.32.62-3.13,1.38-4.5,1.92-.83.32-2,.66-2.82.92a44.84,44.84,0,0,1-19.83,1.2,44.32,44.32,0,0,1-7.22-1.79,48.65,48.65,0,0,1-5.29-2.19A45.1,45.1,0,0,1,4.34,64.08,58.25,58.25,0,0,1,2.1,58.23,35.37,35.37,0,0,1,1,53.83a64.32,64.32,0,0,1-.82-6.78,55.15,55.15,0,0,1,.14-5.89,56.26,56.26,0,0,1,1.2-7.06C1.75,33,2.22,31.64,2.56,30.6Z"/></clipPath><clipPath id="clip-path-2"><path class="cls-1" d="M23.61,84.65a47.21,47.21,0,0,1-5.55-3.58,45.12,45.12,0,0,1-3.76-3.18,43.65,43.65,0,0,1-3.86-4.12c-.7-.87-1.59-2-2.23-3-.51-.73-1.13-1.74-1.61-2.48a36.14,36.14,0,0,1-2.26-4.26,64.06,64.06,0,0,1-2.29-6A56.94,56.94,0,0,1,.63,51.73c-.18-1-.28-2.38-.37-3.4a34.25,34.25,0,0,1-.09-4.75c.13-2.13.45-5,.81-7.06A53.27,53.27,0,0,1,2.56,30.6c.33-1,.88-2.4,1.32-3.41a43,43,0,0,1,2.2-4.4c1.1-1.82,2.71-4.17,4-5.86a38.49,38.49,0,0,1,3.25-3.62c1-1,2.45-2.28,3.55-3.19C27.19,1.8,42.76.75,57.55,8.82c-14.79-8.07-30.36-7-40.67,1.3,1.61-1.2,3.78-2.78,5.5-3.8a45.15,45.15,0,0,1,18.77-6,45.47,45.47,0,0,1,13.11.74A45,45,0,0,1,66.71,5.62a44.37,44.37,0,0,1,11.08,8.51,45.72,45.72,0,0,1,4.33,5.32,48.15,48.15,0,0,1,3.07,5.12,45.05,45.05,0,0,1,4.7,25.65,43.68,43.68,0,0,1-2.13,9.45c-.75,2-1.92,4.71-2.89,6.66a31.76,31.76,0,0,1-2.35,3.92,45.3,45.3,0,0,1-7.84,8.87,44.54,44.54,0,0,1-3.94,3c-1.64,1.09-3.91,2.42-5.65,3.32a44.4,44.4,0,0,1-10,3.55,45.73,45.73,0,0,1-10.83,1.09c-2.41,0-4.28-.29-4.3-.29-.6-.08-1.41-.17-2-.28-1.89-.35-2.67-.49-3.71-.76a47.35,47.35,0,0,1-5.28-1.68A43.41,43.41,0,0,1,23.61,84.65Z"/></clipPath></defs><title>CelestialBody-Black</title><g id="Layer_2" data-name="Layer 2"><g id="Visual_Language" data-name="Visual Language"><g class="cls-2"><g class="cls-2"><g class="cls-3"><g class="cls-2"><path class="cls-4" d="M32.77,81.45C11.75,70,.25,44.42,7.1,24.36-4.25,33.52,3.59,50.24,24.61,61.71,17.76,81.77,21.42,90.61,32.77,81.45Z"/><path class="cls-4" d="M15.25,66c-5.73,4.63-1.77,13.07,8.84,18.86"/><path class="cls-4" d="M6,45.53c-9.8,7.9-3,22.34,15.12,32.25"/><path class="cls-4" d="M32.77,81.45C8.89,76.16-4.92,55.62,1.92,35.57"/><path class="cls-4" d="M32.77,81.45C12.36,83.56,1.36,69,8.2,49"/><path class="cls-4" d="M32.77,81.45c-11.35,9.16-15,.32-8.16-19.74,21,11.48,47.27,13.35,58.62,4.2C76.38,86,53.8,92.92,32.77,81.45Z"/><path class="cls-4" d="M24.09,84.86C34.7,90.65,48,91.6,53.68,87"/><path class="cls-4" d="M21.16,77.78C39.31,87.69,62,89.31,71.78,81.4"/><path class="cls-4" d="M32.77,81.45c.81,13.7,7,8.54,13.86-11.52"/><path class="cls-4" d="M32.77,81.45c12.43,14.53,28,10,34.89-10"/><path class="cls-4" d="M32.77,81.45C53.8,92.92,76.38,86,83.23,65.91,94.58,56.75,86.74,40,65.72,28.55,58.87,48.61,44.13,72.29,32.77,81.45Z"/><path class="cls-4" d="M53.68,87c5.73-4.62,1.77-13.06-8.84-18.85"/><path class="cls-4" d="M71.78,81.4c9.8-7.91,3-22.35-15.12-32.25"/><path class="cls-4" d="M32.77,81.45c23.89,5.28,48.79-6.69,55.64-26.75"/><path class="cls-4" d="M32.77,81.45C53.19,79.33,75.28,61.36,82.12,41.3"/><path class="cls-4" d="M32.77,81.45c11.36-9.16,26.1-32.84,32.95-52.9C44.7,17.08,18.45,15.2,7.1,24.36.25,44.42,11.75,70,32.77,81.45Z"/><path class="cls-4" d="M44.84,68.12C34.23,62.33,21,61.38,15.25,66"/><path class="cls-4" d="M56.66,49.15C38.5,39.24,15.84,37.62,6,45.53"/><path class="cls-4" d="M32.77,81.45C32,67.75,36.86,40.39,43.7,20.33"/><path class="cls-4" d="M32.77,81.45c-12.42-14.53-17-42.56-10.1-62.62"/><path class="cls-4" d="M7.1,24.36c6.84-20,29.43-27,50.45-15.54C46.2,18,31.45,41.66,24.61,61.71,3.59,50.24-4.25,33.52,7.1,24.36Z"/><path class="cls-4" d="M18.55,8.87c-9.81,7.91-3,22.35,15.12,32.25"/><path class="cls-4" d="M1.92,35.57c6.84-20.06,31.75-32,55.63-26.75"/><path class="cls-4" d="M8.2,49C15,28.91,37.14,10.94,57.55,8.82"/><path class="cls-4" d="M24.61,61.71C31.45,41.66,46.2,18,57.55,8.82c21,11.48,32.52,37,25.68,57.09C71.88,75.06,45.63,73.19,24.61,61.71Z"/><path class="cls-4" d="M33.67,41.12C51.82,51,74.48,52.65,84.29,44.74"/><path class="cls-4" d="M46.63,69.93C53.47,49.88,58.36,22.52,57.55,8.82"/><path class="cls-4" d="M67.66,71.44C74.5,51.39,70,23.35,57.55,8.82"/><path class="cls-4" d="M83.23,65.91C90.07,45.85,78.58,20.3,57.55,8.82c11.36-9.16,15-.32,8.17,19.73C86.74,40,94.58,56.75,83.23,65.91Z"/><path class="cls-4" d="M84.29,44.74c9.8-7.9,3-22.34-15.12-32.25"/><path class="cls-4" d="M88.41,54.7c6.84-20.05-7-40.59-30.86-45.88"/><path class="cls-4" d="M82.12,41.3C89,21.25,78,6.7,57.55,8.82"/><path class="cls-4" d="M65.72,28.55c6.84-20,3.19-28.89-8.17-19.73C36.53-2.65,13.94,4.31,7.1,24.36,18.45,15.2,44.7,17.08,65.72,28.55Z"/><path class="cls-4" d="M69.17,12.49C51,2.58,28.35,1,18.55,8.87"/><path class="cls-4" d="M43.7,20.33c6.84-20,13-25.21,13.85-11.51"/><path class="cls-4" d="M22.67,18.83c6.84-20,22.46-24.54,34.88-10"/></g><path class="cls-4" d="M2.56,30.6C3,29.19,3.81,27.35,4.42,26c.44-1,1.16-2.24,1.66-3.2a44.68,44.68,0,0,1,2.69-4.16,38.26,38.26,0,0,1,3.07-3.77c1.44-1.5,3.48-3.38,5-4.74A30.87,30.87,0,0,0,7.1,24.36C.25,44.42,11.75,70,32.77,81.45,11.75,70,.25,44.42,7.1,24.36a30.87,30.87,0,0,1,9.78-14.24A45.08,45.08,0,0,1,22.41,6.3c.84-.47,2-1.12,2.85-1.53,1.33-.63,3.14-1.38,4.5-1.93a41.65,41.65,0,0,1,6.35-1.79A44.08,44.08,0,0,1,41.54.28,44.94,44.94,0,0,1,76.36,12.7a44,44,0,0,1,4.11,4.53,44.93,44.93,0,0,1,4.14,6.24A47.41,47.41,0,0,1,87.17,29c.33.91.79,2.13,1.06,3.06.37,1.31.82,3.07,1.1,4.4a49.78,49.78,0,0,1,.81,6.78A44.52,44.52,0,0,1,90,49.11a48.23,48.23,0,0,1-1.21,7.06c-.36,1.35-.91,3.14-1.38,4.46-.36,1-1,2.36-1.39,3.37a31,31,0,0,1-2.34,4.41,63.5,63.5,0,0,1-4.13,5.76A37.49,37.49,0,0,1,76,77.89a46.35,46.35,0,0,1-5.33,4.3,55,55,0,0,1-5.65,3.32c-1.32.62-3.13,1.38-4.5,1.92-.83.32-2,.66-2.82.92a44.84,44.84,0,0,1-19.83,1.2,44.32,44.32,0,0,1-7.22-1.79,48.65,48.65,0,0,1-5.29-2.19A45.1,45.1,0,0,1,4.34,64.08,58.25,58.25,0,0,1,2.1,58.23,35.37,35.37,0,0,1,1,53.83a64.32,64.32,0,0,1-.82-6.78,55.15,55.15,0,0,1,.14-5.89,56.26,56.26,0,0,1,1.2-7.06C1.75,33,2.22,31.64,2.56,30.6Z"/></g></g><g class="cls-2"><g class="cls-5"><g class="cls-2"><path class="cls-4" d="M32.77,81.45C11.75,70,.25,44.42,7.1,24.36-4.25,33.52,3.59,50.24,24.61,61.71,17.76,81.77,21.42,90.61,32.77,81.45Z"/><path class="cls-4" d="M6,45.53c-9.8,7.9-3,22.34,15.12,32.25"/><path class="cls-4" d="M32.77,81.45C8.89,76.16-4.92,55.62,1.92,35.57"/><path class="cls-4" d="M32.77,81.45C12.36,83.56,1.36,69,8.2,49"/><path class="cls-4" d="M32.77,81.45c-11.35,9.16-15,.32-8.16-19.74,21,11.48,47.27,13.35,58.62,4.2C76.38,86,53.8,92.92,32.77,81.45Z"/><path class="cls-4" d="M21.16,77.78C39.31,87.69,62,89.31,71.78,81.4"/><path class="cls-4" d="M32.77,81.45c.81,13.7,7,8.54,13.86-11.52"/><path class="cls-4" d="M32.77,81.45c12.43,14.53,28,10,34.89-10"/><path class="cls-4" d="M32.77,81.45C53.8,92.92,76.38,86,83.23,65.91,94.58,56.75,86.74,40,65.72,28.55,58.87,48.61,44.13,72.29,32.77,81.45Z"/><path class="cls-4" d="M71.78,81.4c9.8-7.91,3-22.35-15.12-32.25"/><path class="cls-4" d="M32.77,81.45c23.89,5.28,48.79-6.69,55.64-26.75"/><path class="cls-4" d="M32.77,81.45C53.19,79.33,75.28,61.36,82.12,41.3"/><path class="cls-4" d="M32.77,81.45c11.36-9.16,26.1-32.84,32.95-52.9C44.7,17.08,18.45,15.2,7.1,24.36.25,44.42,11.75,70,32.77,81.45Z"/><path class="cls-4" d="M56.66,49.15C38.5,39.24,15.84,37.62,6,45.53"/><path class="cls-4" d="M32.77,81.45C32,67.75,36.86,40.39,43.7,20.33"/><path class="cls-4" d="M32.77,81.45c-12.42-14.53-17-42.56-10.1-62.62"/><path class="cls-4" d="M7.1,24.36c6.84-20,29.43-27,50.45-15.54C46.2,18,31.45,41.66,24.61,61.71,3.59,50.24-4.25,33.52,7.1,24.36Z"/><path class="cls-4" d="M18.55,8.87c-9.81,7.91-3,22.35,15.12,32.25"/><path class="cls-4" d="M36.65,3.29c-5.73,4.63-1.78,13.07,8.84,18.86"/><path class="cls-4" d="M1.92,35.57c6.84-20.06,31.75-32,55.63-26.75"/><path class="cls-4" d="M8.2,49C15,28.91,37.14,10.94,57.55,8.82"/><path class="cls-4" d="M24.61,61.71C31.45,41.66,46.2,18,57.55,8.82c21,11.48,32.52,37,25.68,57.09C71.88,75.06,45.63,73.19,24.61,61.71Z"/><path class="cls-4" d="M33.67,41.12C51.82,51,74.48,52.65,84.29,44.74"/><path class="cls-4" d="M45.49,22.15c10.61,5.79,23.86,6.74,29.59,2.12"/><path class="cls-4" d="M46.63,69.93C53.47,49.88,58.36,22.52,57.55,8.82"/><path class="cls-4" d="M67.66,71.44C74.5,51.39,70,23.35,57.55,8.82"/><path class="cls-4" d="M83.23,65.91C90.07,45.85,78.58,20.3,57.55,8.82c11.36-9.16,15-.32,8.17,19.73C86.74,40,94.58,56.75,83.23,65.91Z"/><path class="cls-4" d="M84.29,44.74c9.8-7.9,3-22.34-15.12-32.25"/><path class="cls-4" d="M75.08,24.27c5.73-4.63,1.77-13.07-8.84-18.86"/><path class="cls-4" d="M88.41,54.7c6.84-20.05-7-40.59-30.86-45.88"/><path class="cls-4" d="M82.12,41.3C89,21.25,78,6.7,57.55,8.82"/><path class="cls-4" d="M65.72,28.55c6.84-20,3.19-28.89-8.17-19.73C36.53-2.65,13.94,4.31,7.1,24.36,18.45,15.2,44.7,17.08,65.72,28.55Z"/><path class="cls-4" d="M69.17,12.49C51,2.58,28.35,1,18.55,8.87"/><path class="cls-4" d="M66.24,5.41C55.62-.38,42.38-1.33,36.65,3.29"/><path class="cls-4" d="M43.7,20.33c6.84-20,13-25.21,13.85-11.51"/><path class="cls-4" d="M22.67,18.83c6.84-20,22.46-24.54,34.88-10"/></g><path class="cls-4" d="M23.61,84.65a47.21,47.21,0,0,1-5.55-3.58,45.12,45.12,0,0,1-3.76-3.18,43.65,43.65,0,0,1-3.86-4.12c-.7-.87-1.59-2-2.23-3-.51-.73-1.13-1.74-1.61-2.48a36.14,36.14,0,0,1-2.26-4.26,64.06,64.06,0,0,1-2.29-6A56.94,56.94,0,0,1,.63,51.73c-.18-1-.28-2.38-.37-3.4a34.25,34.25,0,0,1-.09-4.75c.13-2.13.45-5,.81-7.06A53.27,53.27,0,0,1,2.56,30.6c.33-1,.88-2.4,1.32-3.41a43,43,0,0,1,2.2-4.4c1.1-1.82,2.71-4.17,4-5.86a38.49,38.49,0,0,1,3.25-3.62c1-1,2.45-2.28,3.55-3.19C27.19,1.8,42.76.75,57.55,8.82c-14.79-8.07-30.36-7-40.67,1.3,1.61-1.2,3.78-2.78,5.5-3.8a45.15,45.15,0,0,1,18.77-6,45.47,45.47,0,0,1,13.11.74A45,45,0,0,1,66.71,5.62a44.37,44.37,0,0,1,11.08,8.51,45.72,45.72,0,0,1,4.33,5.32,48.15,48.15,0,0,1,3.07,5.12,45.05,45.05,0,0,1,4.7,25.65,43.68,43.68,0,0,1-2.13,9.45c-.75,2-1.92,4.71-2.89,6.66a31.76,31.76,0,0,1-2.35,3.92,45.3,45.3,0,0,1-7.84,8.87,44.54,44.54,0,0,1-3.94,3c-1.64,1.09-3.91,2.42-5.65,3.32a44.4,44.4,0,0,1-10,3.55,45.73,45.73,0,0,1-10.83,1.09c-2.41,0-4.28-.29-4.3-.29-.6-.08-1.41-.17-2-.28-1.89-.35-2.67-.49-3.71-.76a47.35,47.35,0,0,1-5.28-1.68A43.41,43.41,0,0,1,23.61,84.65Z"/></g></g></g></g></g></svg>