<svg xmlns="http://www.w3.org/2000/svg" xmlns:xlink="http://www.w3.org/1999/xlink" viewBox="0 0 90.06 90.25"><defs><style>.cls-1,.cls-3{fill:none;}.cls-2{clip-path:url(#clip-path);}.cls-3{stroke:#e6dff5;stroke-miterlimit:10;stroke-width:0.25px;}.cls-4{fill:#e6dff5;}</style><clipPath id="clip-path" transform="translate(22.38 0)"><rect class="cls-1" x="0.12" y="0.13" width="45.06" height="90"/></clipPath></defs><title>JunoLogoWaves-Mid-White</title><g id="Layer_2" data-name="Layer 2"><g id="Visual_Language" data-name="Visual Language"><g class="cls-2"><path class="cls-3" d="M22.62,45.12a45,45,0,0,0-45-45" transform="translate(22.38 0)"/><path class="cls-3" d="M22.62,45.12c0-24.85-14.14-45-39-45" transform="translate(22.38 0)"/><path class="cls-3" d="M22.62,45.12c0-24.85,2.36-45-22.5-45" transform="translate(22.38 0)"/><line class="cls-3" x1="45" y1="6.12" x2="22.46" y2="6.13"/><line class="cls-3" x1="45" y1="22.62" x2="38.98" y2="22.62"/><line class="cls-3" x1="45" y1="0.12" x2="45" y2="45.12"/><path class="cls-3" d="M22.68,45.13a45,45,0,0,1,45-45" transform="translate(22.38 0)"/><path class="cls-3" d="M22.68,45.13c0-24.86,14.15-45,39-45" transform="translate(22.38 0)"/><path class="cls-3" d="M22.68,45.13c0-24.86-2.35-45,22.5-45" transform="translate(22.38 0)"/><line class="cls-3" x1="45.06" y1="6.13" x2="67.6" y2="6.13"/><line class="cls-3" x1="45.06" y1="22.63" x2="51.08" y2="22.63"/><line class="cls-3" x1="45.06" y1="0.13" x2="45.06" y2="45.13"/><path class="cls-3" d="M22.62,45.13a45,45,0,0,1-45,45" transform="translate(22.38 0)"/><path class="cls-3" d="M22.62,45.13c0,24.85-14.14,45-39,45" transform="translate(22.38 0)"/><path class="cls-3" d="M22.62,45.13c0,24.85,2.36,45-22.5,45" transform="translate(22.38 0)"/><line class="cls-3" x1="45" y1="84.13" x2="22.46" y2="84.13"/><line class="cls-3" x1="45" y1="67.63" x2="38.98" y2="67.63"/><line class="cls-3" x1="45" y1="90.13" x2="45" y2="45.13"/><path class="cls-3" d="M22.68,45.13a45,45,0,0,0,45,45" transform="translate(22.38 0)"/><path class="cls-3" d="M22.68,45.13c0,24.85,14.15,45,39,45" transform="translate(22.38 0)"/><path class="cls-3" d="M22.68,45.13c0,24.85-2.35,45,22.5,45" transform="translate(22.38 0)"/><line class="cls-3" x1="45.06" y1="84.13" x2="67.6" y2="84.13"/><line class="cls-3" x1="45.06" y1="67.63" x2="51.08" y2="67.63"/><line class="cls-3" x1="45.06" y1="90.13" x2="45.06" y2="45.13"/><circle class="cls-4" cx="45.06" cy="45.13" r="3"/></g><rect class="cls-3" x="22.5" y="0.13" width="45.06" height="90"/></g></g></svg>