<svg xmlns="http://www.w3.org/2000/svg" viewBox="0 0 90.25 90.25"><defs><style>.cls-1{fill:none;stroke:#101217;stroke-miterlimit:10;stroke-width:0.25px;}.cls-2{fill:#101217;}</style></defs><title>JunoLogoWaves-Black</title><g id="Layer_2" data-name="Layer 2"><g id="Visual_Language" data-name="Visual Language"><path class="cls-1" d="M45.13,45.12a45,45,0,0,0-45-45"/><path class="cls-1" d="M45.13,45.12c0-24.85-14.15-45-39-45"/><path class="cls-1" d="M45.13,45.12c0-24.85,2.35-45-22.5-45"/><line class="cls-1" x1="45.13" y1="6.12" x2="22.59" y2="6.13"/><line class="cls-1" x1="45.13" y1="22.62" x2="39.1" y2="22.62"/><line class="cls-1" x1="45.13" y1="0.12" x2="45.13" y2="45.12"/><path class="cls-1" d="M45.18,45.13a45,45,0,0,1,45-45"/><path class="cls-1" d="M45.18,45.13c0-24.86,14.15-45,39-45"/><path class="cls-1" d="M45.18,45.13c0-24.86-2.35-45,22.5-45"/><line class="cls-1" x1="45.18" y1="6.13" x2="67.72" y2="6.13"/><line class="cls-1" x1="45.18" y1="22.63" x2="51.21" y2="22.63"/><line class="cls-1" x1="45.18" y1="0.13" x2="45.18" y2="45.13"/><path class="cls-1" d="M45.13,45.13a45,45,0,0,1-45,45"/><path class="cls-1" d="M45.13,45.13c0,24.85-14.15,45-39,45"/><path class="cls-1" d="M45.13,45.13c0,24.85,2.35,45-22.5,45"/><line class="cls-1" x1="45.13" y1="84.13" x2="22.59" y2="84.13"/><line class="cls-1" x1="45.13" y1="67.63" x2="39.1" y2="67.63"/><line class="cls-1" x1="45.13" y1="90.13" x2="45.13" y2="45.13"/><path class="cls-1" d="M45.18,45.13a45,45,0,0,0,45,45"/><path class="cls-1" d="M45.18,45.13c0,24.85,14.15,45,39,45"/><path class="cls-1" d="M45.18,45.13c0,24.85-2.35,45,22.5,45"/><line class="cls-1" x1="45.18" y1="84.13" x2="67.72" y2="84.13"/><line class="cls-1" x1="45.18" y1="67.63" x2="51.21" y2="67.63"/><line class="cls-1" x1="45.18" y1="90.13" x2="45.18" y2="45.13"/><rect class="cls-1" x="0.13" y="0.13" width="90" height="90"/><circle class="cls-2" cx="45.18" cy="45.13" r="3"/><line class="cls-1" x1="84.18" y1="90.13" x2="84.18" y2="0.13"/><line class="cls-1" x1="67.68" y1="90.13" x2="67.68" y2="0.13"/><line class="cls-1" x1="22.63" y1="90.13" x2="22.63" y2="0.13"/><line class="cls-1" x1="6.13" y1="90.13" x2="6.13" y2="0.13"/></g></g></svg>