<svg xmlns="http://www.w3.org/2000/svg" viewBox="0 0 62 74.18"><defs><style>.cls-1{isolation:isolate;}.cls-2,.cls-3{fill:#00aee3;}.cls-2{fill-rule:evenodd;}.cls-4{fill:#fff;}.cls-5,.cls-6{fill:#40b5d6;}.cls-6{opacity:0.6;mix-blend-mode:overlay;}</style></defs><title>Asset 2</title><g class="cls-1"><g id="Layer_2" data-name="Layer 2"><g id="Text"><polygon class="cls-2" points="31 74.18 34.12 66.04 36.12 60.83 25.81 60.65 27.87 66.04 31 74.18"/><path class="cls-3" d="M61.89,28.32a.25.25,0,0,1,0-.09A31,31,0,0,0,33.64.11C32.77,0,31.89,0,31,0s-1.77,0-2.64.11A31,31,0,0,0,.11,28.32C0,29.19,0,30.07,0,31A30.9,30.9,0,0,0,28.36,61.81c.87.07,1.75.11,2.64.11s1.77,0,2.64-.11A31,31,0,0,0,62,31C62,30.07,62,29.19,61.89,28.32Zm-1.78.32c0,.17,0,.34,0,.51a.25.25,0,0,1-.24.26h0a.26.26,0,0,1-.25-.24l0-.5a.24.24,0,0,1,.23-.27A.25.25,0,0,1,60.11,28.64Zm0,5.14a.25.25,0,0,1-.25.23h0a.24.24,0,0,1-.22-.27c0-.17,0-.34,0-.5a.26.26,0,0,1,.27-.24.26.26,0,0,1,.23.28C60.1,33.45,60.09,33.62,60.07,33.78Zm-.23-7.42c0,.17,0,.34.07.51a.24.24,0,0,1-.21.28h0a.27.27,0,0,1-.25-.22c0-.17,0-.33-.07-.5a.26.26,0,0,1,.21-.29A.26.26,0,0,1,59.84,26.36Zm-.76-2.43a.26.26,0,0,1,.31.19c0,.16.08.33.11.49a.25.25,0,0,1-.19.3h-.05a.26.26,0,0,1-.25-.2c0-.16-.07-.32-.11-.48A.26.26,0,0,1,59.08,23.93Zm-.63-2.18a.25.25,0,0,1,.31.16c.06.16.11.32.16.49a.25.25,0,0,1-.17.31h-.07a.27.27,0,0,1-.25-.17,4.42,4.42,0,0,0-.15-.48A.26.26,0,0,1,58.45,21.75ZM3.23,22c.06-.17.11-.33.17-.49a.25.25,0,1,1,.47.17c-.05.15-.1.31-.16.47a.25.25,0,0,1-.24.18H3.4A.26.26,0,0,1,3.23,22Zm-.61,2.2c0-.16.08-.33.12-.49a.24.24,0,0,1,.31-.18.25.25,0,0,1,.18.3l-.12.49a.25.25,0,0,1-.25.19H2.8A.25.25,0,0,1,2.62,24.2ZM2.26,26a.25.25,0,1,1,.49.09c0,.16,0,.32-.08.49a.25.25,0,0,1-.25.21h0a.26.26,0,0,1-.21-.29ZM2,28.22a.26.26,0,1,1,.51.05c0,.16,0,.33,0,.5a.25.25,0,0,1-.25.23h0a.25.25,0,0,1-.23-.27C1.92,28.56,1.94,28.39,2,28.22ZM1.82,31c0-.16,0-.32,0-.48a.26.26,0,0,1,.25-.25.26.26,0,0,1,.25.26V31a.25.25,0,0,1-.25.25A.26.26,0,0,1,1.82,31Zm.09,2.32,0-.51a.26.26,0,0,1,.24-.27.25.25,0,0,1,.26.24c0,.16,0,.33,0,.5a.26.26,0,0,1-.23.27h0A.25.25,0,0,1,1.91,33.31Zm.52,2.49a.26.26,0,0,1-.25-.22c0-.17-.05-.33-.07-.5a.25.25,0,0,1,.21-.29.26.26,0,0,1,.29.22c0,.16.05.33.07.49a.25.25,0,0,1-.21.29ZM2.93,38H2.87a.24.24,0,0,1-.24-.19l-.12-.5a.26.26,0,0,1,.5-.11c0,.17.07.33.11.49A.26.26,0,0,1,2.93,38Zm.64,2.18H3.49A.26.26,0,0,1,3.25,40l-.15-.48a.26.26,0,0,1,.17-.32.25.25,0,0,1,.31.17l.15.48A.25.25,0,0,1,3.57,40.2Zm.81,2.12-.1,0a.25.25,0,0,1-.23-.16c-.07-.15-.13-.31-.19-.47A.25.25,0,0,1,4,41.38a.26.26,0,0,1,.33.15l.18.46A.25.25,0,0,1,4.38,42.32Zm.31-22.75c-.07.16-.13.31-.2.46a.25.25,0,0,1-.23.16l-.1,0A.24.24,0,0,1,4,19.84c.06-.16.13-.31.2-.47a.24.24,0,0,1,.33-.13A.25.25,0,0,1,4.69,19.57Zm.66,24.8a.27.27,0,0,1-.12,0A.24.24,0,0,1,5,44.26c-.08-.15-.16-.3-.23-.46a.24.24,0,0,1,.12-.33.24.24,0,0,1,.33.11l.23.45A.26.26,0,0,1,5.35,44.37Zm.32-26.83c-.08.15-.16.3-.23.45a.28.28,0,0,1-.23.13.2.2,0,0,1-.11,0A.25.25,0,0,1,5,17.76c.07-.16.15-.31.23-.46a.26.26,0,0,1,.45.24Zm.81,28.8a.35.35,0,0,1-.14,0,.25.25,0,0,1-.21-.12l-.26-.43A.25.25,0,0,1,6,45.47a.26.26,0,0,1,.35.09l.26.43A.27.27,0,0,1,6.48,46.34ZM6.8,15.59,6.54,16a.25.25,0,0,1-.22.12.22.22,0,0,1-.13,0,.25.25,0,0,1-.08-.35l.27-.43a.25.25,0,1,1,.42.27Zm1,32.62a.3.3,0,0,1-.15,0,.26.26,0,0,1-.21-.11c-.1-.13-.2-.27-.29-.41a.25.25,0,0,1,.06-.35.25.25,0,0,1,.35.06l.29.41A.25.25,0,0,1,7.76,48.21Zm.33-34.47-.3.4a.26.26,0,0,1-.2.11.25.25,0,0,1-.15-.05.25.25,0,0,1-.06-.35c.1-.14.2-.28.31-.41a.24.24,0,0,1,.35,0A.25.25,0,0,1,8.09,13.74ZM9.18,50A.27.27,0,0,1,9,50,.25.25,0,0,1,8.82,50l-.33-.39a.25.25,0,0,1,0-.35.24.24,0,0,1,.35,0l.33.38A.26.26,0,0,1,9.18,50Zm.33-38c-.11.12-.22.25-.32.38a.3.3,0,0,1-.2.08.27.27,0,0,1-.16-.06.24.24,0,0,1,0-.35l.34-.39a.25.25,0,0,1,.35,0A.25.25,0,0,1,9.51,12Zm1.23,39.63a.27.27,0,0,1-.18.08.25.25,0,0,1-.18-.08L10,51.27a.25.25,0,0,1,0-.36.25.25,0,0,1,.35,0l.36.36A.26.26,0,0,1,10.74,51.63Zm.33-41.26-.36.35a.24.24,0,0,1-.18.07.23.23,0,0,1-.17-.07.25.25,0,0,1,0-.36l.36-.35a.25.25,0,0,1,.36,0A.26.26,0,0,1,11.07,10.37Zm1.35,42.79a.25.25,0,0,1-.19.09.27.27,0,0,1-.17-.06l-.38-.33a.26.26,0,0,1,0-.36.25.25,0,0,1,.36,0l.38.32A.25.25,0,0,1,12.42,53.16Zm.33-44.29-.38.32a.27.27,0,0,1-.17.06A.25.25,0,0,1,12,9.16a.24.24,0,0,1,0-.35l.39-.33a.24.24,0,0,1,.35,0A.25.25,0,0,1,12.75,8.87Zm1.46,45.68a.24.24,0,0,1-.2.11.3.3,0,0,1-.15,0l-.41-.3a.26.26,0,0,1,.31-.41l.4.3A.24.24,0,0,1,14.21,54.55Zm.33-47-.41.29a.21.21,0,0,1-.15,0,.23.23,0,0,1-.2-.1.25.25,0,0,1,.05-.35l.42-.3a.25.25,0,0,1,.29.41Zm1.58,48.3a.26.26,0,0,1-.22.12.2.2,0,0,1-.13,0c-.15-.08-.29-.17-.44-.27a.25.25,0,1,1,.28-.42l.42.26A.26.26,0,0,1,16.12,55.8Zm.31-49.52L16,6.54a.22.22,0,0,1-.13,0,.25.25,0,0,1-.22-.12.27.27,0,0,1,.08-.35l.44-.26a.26.26,0,0,1,.35.09A.25.25,0,0,1,16.43,6.28ZM18.11,56.9a.26.26,0,0,1-.23.13.22.22,0,0,1-.11,0l-.45-.24a.25.25,0,0,1-.11-.34.26.26,0,0,1,.34-.11l.45.24A.26.26,0,0,1,18.11,56.9Zm.3-51.69L18,5.44l-.12,0a.24.24,0,0,1-.22-.14A.25.25,0,0,1,17.73,5l.45-.23a.25.25,0,0,1,.34.12A.25.25,0,0,1,18.41,5.21Zm1.77,52.62A.25.25,0,0,1,20,58l-.1,0-.47-.2a.26.26,0,0,1-.13-.33.26.26,0,0,1,.33-.14l.47.2A.24.24,0,0,1,20.18,57.83Zm.28-53.52L20,4.49a.18.18,0,0,1-.1,0,.25.25,0,0,1-.23-.15A.25.25,0,0,1,19.8,4l.47-.19A.25.25,0,0,1,20.6,4,.26.26,0,0,1,20.46,4.31ZM22.33,58.6a.25.25,0,0,1-.24.17H22l-.49-.16a.25.25,0,0,1-.15-.32.25.25,0,0,1,.32-.16l.47.16A.26.26,0,0,1,22.33,58.6Zm.26-55-.48.15H22a.24.24,0,0,1-.24-.17A.26.26,0,0,1,22,3.23l.49-.15a.25.25,0,0,1,.31.16A.25.25,0,0,1,22.59,3.56Zm1.93,55.63a.26.26,0,0,1-.25.2h-.06l-.49-.12a.25.25,0,0,1-.18-.31.25.25,0,0,1,.31-.18l.48.12A.25.25,0,0,1,24.52,59.19ZM24.76,3l-.49.11h-.05a.26.26,0,0,1-.25-.2.25.25,0,0,1,.19-.3l.49-.12a.25.25,0,0,1,.3.19A.26.26,0,0,1,24.76,3ZM26.5,59.83h0l-.5-.08a.25.25,0,0,1-.21-.29.27.27,0,0,1,.3-.21l.49.08a.26.26,0,0,1,.21.29A.26.26,0,0,1,26.5,59.83ZM27,2.58l-.5.08h0a.25.25,0,0,1,0-.5l.51-.08a.25.25,0,0,1,.28.22A.24.24,0,0,1,27,2.58Zm1.78,57.51h0l-.51,0a.26.26,0,0,1,.05-.51l.5.05a.25.25,0,0,1,0,.5Zm.46-57.73-.5,0h0a.25.25,0,0,1,0-.5l.51,0a.26.26,0,0,1,0,.51ZM31,60.18h-.51a.25.25,0,0,1-.25-.25.26.26,0,0,1,.26-.25H31a.26.26,0,0,1,.26.25A.25.25,0,0,1,31,60.18Zm.44-57.87H31a.25.25,0,0,1,0-.5h.51a.26.26,0,0,1,.25.26A.26.26,0,0,1,31.47,2.31Zm1.85,57.78-.51,0h0a.25.25,0,0,1-.25-.23.26.26,0,0,1,.24-.27l.5,0a.26.26,0,0,1,.27.24A.25.25,0,0,1,33.32,60.09Zm.42-57.66h0l-.5,0a.26.26,0,0,1,0-.51l.51.05A.24.24,0,0,1,34,2.2.25.25,0,0,1,33.74,2.43Zm1.85,57.39-.5.07h0a.26.26,0,0,1,0-.51l.49-.07a.25.25,0,1,1,.08.5ZM36,2.73h0l-.49-.09a.25.25,0,0,1-.22-.28.26.26,0,0,1,.29-.21l.51.08a.24.24,0,0,1,.2.29A.26.26,0,0,1,36,2.73Zm1.85,56.64-.5.12h-.05A.26.26,0,0,1,37,59.3a.26.26,0,0,1,.19-.31l.49-.11a.26.26,0,0,1,.31.19A.25.25,0,0,1,37.84,59.37ZM38.46,3a.26.26,0,0,1-.25.19h-.06l-.48-.12a.26.26,0,0,1-.19-.31.25.25,0,0,1,.3-.18l.5.12A.26.26,0,0,1,38.46,3Zm1.59,55.73-.49.16h-.07a.27.27,0,0,1-.25-.18.26.26,0,0,1,.17-.32l.48-.15a.26.26,0,0,1,.32.16A.25.25,0,0,1,40.05,58.75Zm.58-55.06a.25.25,0,0,1-.24.17l-.08,0-.48-.16a.25.25,0,0,1-.16-.31A.26.26,0,0,1,40,3.2l.48.16A.25.25,0,0,1,40.63,3.69ZM42.19,58l-.47.19-.09,0A.24.24,0,0,1,41.4,58a.25.25,0,0,1,.14-.33l.46-.19a.25.25,0,1,1,.19.47Zm.56-53.43a.26.26,0,0,1-.23.15l-.11,0L42,4.46a.25.25,0,0,1-.14-.33A.25.25,0,0,1,42.14,4l.48.19A.27.27,0,0,1,42.75,4.53ZM44.27,57l-.45.23-.12,0a.24.24,0,0,1-.22-.14.26.26,0,0,1,.11-.34l.45-.22a.25.25,0,0,1,.23.45Zm.52-51.47a.25.25,0,0,1-.23.14.2.2,0,0,1-.11,0L44,5.4a.25.25,0,0,1-.11-.33A.25.25,0,0,1,44.23,5l.45.24A.25.25,0,0,1,44.79,5.53Zm1.48,50.35-.44.26a.2.2,0,0,1-.13,0,.27.27,0,0,1-.22-.13.25.25,0,0,1,.09-.34l.43-.26a.26.26,0,0,1,.35.08A.27.27,0,0,1,46.27,55.88Zm.47-49.19a.25.25,0,0,1-.21.12.25.25,0,0,1-.14,0L46,6.51a.26.26,0,0,1,.26-.44l.44.27A.26.26,0,0,1,46.74,6.69Zm1.43,47.92-.42.29a.24.24,0,0,1-.14.05.26.26,0,0,1-.21-.11.25.25,0,0,1,.06-.35l.41-.29a.25.25,0,0,1,.35,0A.26.26,0,0,1,48.17,54.61ZM48.6,8a.26.26,0,0,1-.2.11.22.22,0,0,1-.15-.06l-.41-.29a.26.26,0,0,1-.05-.36.25.25,0,0,1,.35-.05l.41.3A.25.25,0,0,1,48.6,8ZM50,53.19l-.39.32a.27.27,0,0,1-.16.06.25.25,0,0,1-.2-.09.26.26,0,0,1,0-.36l.39-.32a.24.24,0,0,1,.35,0A.26.26,0,0,1,50,53.19Zm.38-43.73a.27.27,0,0,1-.36,0l-.38-.33a.25.25,0,0,1,.33-.38l.39.33A.26.26,0,0,1,50.35,9.46Zm1.3,42.17-.37.36a.22.22,0,0,1-.17.07.25.25,0,0,1-.18-.08.25.25,0,0,1,0-.36l.36-.35a.27.27,0,0,1,.36,0A.25.25,0,0,1,51.65,51.63ZM52,11a.24.24,0,0,1-.18.07.23.23,0,0,1-.18-.08l-.35-.35a.25.25,0,0,1,.36-.36l.35.36A.25.25,0,0,1,52,11ZM53.21,50l-.34.38a.25.25,0,0,1-.19.09.27.27,0,0,1-.17-.06.26.26,0,0,1,0-.36l.33-.38a.26.26,0,0,1,.39.33Zm.27-37.2a.33.33,0,0,1-.16.05.25.25,0,0,1-.2-.09c-.1-.13-.21-.25-.32-.38a.25.25,0,0,1,0-.36.24.24,0,0,1,.35,0l.33.39A.25.25,0,0,1,53.48,12.75Zm1.15,35.4-.31.41a.23.23,0,0,1-.2.1.27.27,0,0,1-.15,0,.24.24,0,0,1,0-.35l.3-.41a.25.25,0,0,1,.41.3Zm.21-33.59a.24.24,0,0,1-.14,0,.26.26,0,0,1-.21-.11l-.29-.41a.24.24,0,0,1,0-.35.26.26,0,0,1,.36.06c.1.13.19.27.29.41A.25.25,0,0,1,54.84,14.56ZM55.9,46.25l-.27.43a.26.26,0,0,1-.21.11.23.23,0,0,1-.14,0,.24.24,0,0,1-.07-.34l.26-.43a.25.25,0,0,1,.43.27Zm.16-29.77a.31.31,0,0,1-.13,0,.25.25,0,0,1-.22-.12L55.45,16a.27.27,0,0,1,.08-.35.26.26,0,0,1,.35.09l.26.43A.25.25,0,0,1,56.06,16.48Zm1,27.76-.24.46a.26.26,0,0,1-.22.13.24.24,0,0,1-.12,0,.25.25,0,0,1-.11-.34c.08-.15.16-.3.23-.45a.27.27,0,0,1,.35-.11A.26.26,0,0,1,57,44.24Zm.09-25.76-.11,0a.24.24,0,0,1-.23-.14l-.22-.45a.25.25,0,0,1,.1-.34.26.26,0,0,1,.34.11c.08.15.16.3.23.45A.26.26,0,0,1,57.12,18.48ZM58,42.16l-.2.47a.25.25,0,0,1-.23.15.22.22,0,0,1-.11,0,.26.26,0,0,1-.13-.33c.07-.15.14-.31.2-.46a.25.25,0,0,1,.47.19Zm0-21.6a.18.18,0,0,1-.1,0,.25.25,0,0,1-.23-.16L57.5,20a.25.25,0,0,1,.14-.33.26.26,0,0,1,.33.14c.06.15.13.31.19.47A.24.24,0,0,1,58,20.56ZM58.78,40c-.05.16-.1.32-.16.48a.25.25,0,0,1-.24.17H58.3a.26.26,0,0,1-.16-.32c.06-.16.11-.32.16-.48a.25.25,0,0,1,.32-.16h0c.09-.17.18-.34.26-.52-.08.18-.17.35-.26.52A.26.26,0,0,1,58.78,40ZM59,38.48H59a.27.27,0,0,1-.18-.31l.12-.49a.25.25,0,0,1,.31-.18.24.24,0,0,1,.18.3l-.12.49A.24.24,0,0,1,59,38.48Zm.72-2.43a.24.24,0,0,1-.24.21h-.05a.24.24,0,0,1-.2-.29c0-.17,0-.33.08-.5a.26.26,0,0,1,.29-.21.25.25,0,0,1,.21.29Zm.44-4.55a.26.26,0,0,1-.25.25h0a.26.26,0,0,1-.25-.26c0-.17,0-.34,0-.5v-.06a.25.25,0,1,1,.5,0v.57Z"/><polygon class="cls-4" points="34.06 19.55 43.96 25.09 43.94 43.99 47.09 45.46 46.95 23.81 34.06 19.55"/><polygon class="cls-4" points="51.82 41.85 51.7 18.55 36.03 18.55 48.89 21.4 48.79 41.34 51.82 41.85"/><polygon class="cls-4" points="27.93 19.55 15.05 23.81 14.91 45.46 18.07 43.99 18.04 25.09 27.93 19.55"/><polygon class="cls-4" points="25.97 18.55 10.3 18.55 10.18 41.85 13.21 41.34 13.11 21.4 25.97 18.55"/><polyline class="cls-4" points="27.43 41.16 34.57 41.16 42.25 47.25 42.34 26.31 31 19.53 19.66 26.31 19.75 47.25 27.43 41.16"/><polygon class="cls-5" points="32.9 27.44 30.61 22.76 23.93 39.35 33.72 34.87 27.07 35.18 32.9 27.44"/><polygon class="cls-5" points="38.07 39.37 33.19 28.07 30.49 31.68 38.07 39.37"/><polygon class="cls-5" points="23.93 39.35 31.8 25.18 30.61 22.76 23.93 39.35"/><polygon class="cls-5" points="38.07 39.37 31.85 29.87 33.19 28.07 38.07 39.37"/><polygon class="cls-6" points="30.61 22.76 27.07 35.18 32.9 27.44 30.61 22.76"/><polygon class="cls-6" points="33.74 34.88 25.01 36.67 23.93 39.35 33.74 34.88"/><polygon class="cls-6" points="33.19 28.07 33.67 34.88 38.07 39.37 33.19 28.07"/></g></g></g></svg>