<svg xmlns="http://www.w3.org/2000/svg" width="75.335" height="21.818" viewBox="0 0 75.335 21.818">
  <path id="express-109" d="M.49,17.013V8.629H10.958v-.49H.49V.49H11.62V0H0V17.5H11.718v-.49H.49ZM21.157,4.9l-4.339,5.712L12.576,4.9h-.637l4.584,6.08L11.5,17.5h.588l4.731-6.153L21.573,17.5h.613l-5.05-6.521L21.745,4.9h-.588Zm2.5,16.915V13.974h.049a5.035,5.035,0,0,0,1.741,2.758,5.124,5.124,0,0,0,3.309,1.042,4.79,4.79,0,0,0,3.984-1.961A6.676,6.676,0,0,0,33.77,13.7a8.855,8.855,0,0,0,.355-2.525,8.926,8.926,0,0,0-.368-2.623,6.279,6.279,0,0,0-1.066-2.084A4.9,4.9,0,0,0,31,5.1a5,5,0,0,0-2.243-.49,5.44,5.44,0,0,0-1.777.282,4.758,4.758,0,0,0-1.459.8,5.4,5.4,0,0,0-1.1,1.213,5.588,5.588,0,0,0-.711,1.532h-.049V4.9h-.49V21.818h.49Zm5.1-4.511a4.7,4.7,0,0,1-3.7-1.581,6.656,6.656,0,0,1-1.4-4.548A7.8,7.8,0,0,1,24,8.85a6.032,6.032,0,0,1,.993-1.937A4.768,4.768,0,0,1,26.6,5.59a4.658,4.658,0,0,1,2.157-.49,4.491,4.491,0,0,1,2.145.49,4.348,4.348,0,0,1,1.52,1.336,6.221,6.221,0,0,1,.907,1.937,8.533,8.533,0,0,1,.306,2.317,8.731,8.731,0,0,1-.282,2.194,6.272,6.272,0,0,1-.87,1.961,4.737,4.737,0,0,1-1.508,1.422A4.237,4.237,0,0,1,28.756,17.308Zm8.066.2V10.37a6.952,6.952,0,0,1,.294-2.01,4.923,4.923,0,0,1,.907-1.728A4.251,4.251,0,0,1,39.58,5.455,4.725,4.725,0,0,1,41.823,5.1v-.49a6.074,6.074,0,0,0-1.973.245,4.792,4.792,0,0,0-1.459.736A3.757,3.757,0,0,0,37.41,6.68a4.878,4.878,0,0,0-.539,1.336h-.049V4.9h-.49V17.5h.49Zm5.614-6.2H52.977a8.725,8.725,0,0,0-.257-2.5,6.219,6.219,0,0,0-.981-2.133A4.993,4.993,0,0,0,50,5.173a5.358,5.358,0,0,0-2.537-.564,5.16,5.16,0,0,0-3.824,1.728,6.531,6.531,0,0,0-1.226,2.072,7.829,7.829,0,0,0-.466,2.795,10.25,10.25,0,0,0,.319,2.611,6.117,6.117,0,0,0,.981,2.108,4.425,4.425,0,0,0,1.7,1.385,5.637,5.637,0,0,0,2.513.466,5.513,5.513,0,0,0,3.628-1.213,5.022,5.022,0,0,0,1.741-3.42h-.49a4.714,4.714,0,0,1-1.63,3.126,5.135,5.135,0,0,1-3.3,1.042,5.062,5.062,0,0,1-2.28-.466,4.131,4.131,0,0,1-1.52-1.275,5.56,5.56,0,0,1-.87-1.9,10.22,10.22,0,0,1-.306-2.366Zm10.051-.49H42.436a7.579,7.579,0,0,1,.49-2.378,5.9,5.9,0,0,1,1.091-1.8,4.56,4.56,0,0,1,1.569-1.14A4.74,4.74,0,0,1,47.51,5.1a4.872,4.872,0,0,1,2.157.454,4.457,4.457,0,0,1,1.557,1.238,5.46,5.46,0,0,1,.944,1.826A7.46,7.46,0,0,1,52.487,10.811ZM63.151,8.629h.49a3.647,3.647,0,0,0-1.226-3.064,5.286,5.286,0,0,0-3.334-.956A5.848,5.848,0,0,0,57.1,4.9a3.97,3.97,0,0,0-1.324.76,2.735,2.735,0,0,0-.735,1.03,2.958,2.958,0,0,0-.221,1.079,3.175,3.175,0,0,0,.368,1.643,2.42,2.42,0,0,0,1.152.956,8.874,8.874,0,0,0,1.226.441q.686.2,1.594.417.809.2,1.594.392a5.756,5.756,0,0,1,1.385.527,2.994,2.994,0,0,1,.981.846,2.216,2.216,0,0,1,.38,1.348,2.4,2.4,0,0,1-.38,1.373,3.063,3.063,0,0,1-.968.919,4.313,4.313,0,0,1-1.312.515,6.542,6.542,0,0,1-1.41.159A5.2,5.2,0,0,1,56,16.315a3.846,3.846,0,0,1-1.189-3.126h-.49a4.344,4.344,0,0,0,1.287,3.481,5.72,5.72,0,0,0,3.812,1.1,7.446,7.446,0,0,0,1.63-.184,4.53,4.53,0,0,0,1.471-.6A3.324,3.324,0,0,0,63.58,15.91a3.048,3.048,0,0,0,.4-1.618,2.723,2.723,0,0,0-.355-1.471,2.982,2.982,0,0,0-.932-.932,4.941,4.941,0,0,0-1.3-.576q-.727-.21-1.459-.4-.9-.236-1.8-.466A10.937,10.937,0,0,1,56.7,9.978a2.433,2.433,0,0,1-1.017-.772,2.341,2.341,0,0,1-.38-1.434,3.379,3.379,0,0,1,.1-.613,2.2,2.2,0,0,1,.466-.895A3.136,3.136,0,0,1,57,5.455,5.008,5.008,0,0,1,59.081,5.1a6.522,6.522,0,0,1,1.655.2,3.44,3.44,0,0,1,1.287.625,2.845,2.845,0,0,1,.834,1.091,3.976,3.976,0,0,1,.294,1.618Zm11.35,0h.49a3.647,3.647,0,0,0-1.226-3.064,5.286,5.286,0,0,0-3.334-.956,5.847,5.847,0,0,0-1.986.294,3.967,3.967,0,0,0-1.324.76,2.734,2.734,0,0,0-.736,1.03,2.958,2.958,0,0,0-.221,1.079,3.175,3.175,0,0,0,.368,1.643,2.419,2.419,0,0,0,1.152.956,8.879,8.879,0,0,0,1.226.441q.686.2,1.594.417.809.2,1.594.392a5.758,5.758,0,0,1,1.385.527,2.993,2.993,0,0,1,.981.846,2.215,2.215,0,0,1,.38,1.348,2.4,2.4,0,0,1-.38,1.373,3.063,3.063,0,0,1-.968.919,4.314,4.314,0,0,1-1.312.515,6.541,6.541,0,0,1-1.41.159,5.2,5.2,0,0,1-3.42-.993,3.846,3.846,0,0,1-1.189-3.126h-.49a4.344,4.344,0,0,0,1.287,3.481,5.72,5.72,0,0,0,3.812,1.1,7.444,7.444,0,0,0,1.63-.184,4.533,4.533,0,0,0,1.471-.6A3.324,3.324,0,0,0,74.93,15.91a3.048,3.048,0,0,0,.4-1.618,2.722,2.722,0,0,0-.355-1.471,2.98,2.98,0,0,0-.932-.932,4.943,4.943,0,0,0-1.3-.576q-.727-.21-1.459-.4-.9-.236-1.8-.466a10.934,10.934,0,0,1-1.434-.466,2.432,2.432,0,0,1-1.017-.772,2.341,2.341,0,0,1-.38-1.434,3.369,3.369,0,0,1,.1-.613,2.2,2.2,0,0,1,.466-.895,3.138,3.138,0,0,1,1.128-.809A5.008,5.008,0,0,1,70.432,5.1a6.522,6.522,0,0,1,1.655.2,3.441,3.441,0,0,1,1.287.625,2.845,2.845,0,0,1,.834,1.091A3.976,3.976,0,0,1,74.5,8.629Z" fill="#e6dff5"/>
</svg>
