<svg xmlns="http://www.w3.org/2000/svg" width="33.299" height="37.521" viewBox="0 0 33.299 37.521">
  <path id="Trazado_1759" data-name="Trazado 1759" d="M213.937,224.812a3.024,3.024,0,0,1-1.448-.379l-4.584-2.723c-.69-.379-.345-.517-.138-.586a8.366,8.366,0,0,0,2.068-.931.317.317,0,0,1,.345.034l3.516,2.1a.438.438,0,0,0,.413,0l13.754-7.963a.4.4,0,0,0,.207-.379V198.1a.4.4,0,0,0-.207-.379l-13.754-7.928a.436.436,0,0,0-.413,0l-13.754,7.928a.433.433,0,0,0-.207.379v15.891a.433.433,0,0,0,.207.379l3.757,2.172c2.034,1.034,3.309-.172,3.309-1.379V199.476a.419.419,0,0,1,.414-.414h1.758a.419.419,0,0,1,.414.414V215.16c0,2.723-1.482,4.309-4.068,4.309a5.912,5.912,0,0,1-3.171-.862l-3.619-2.068a2.909,2.909,0,0,1-1.448-2.516V198.132a2.909,2.909,0,0,1,1.448-2.516l13.754-7.963a3.077,3.077,0,0,1,2.9,0l13.754,7.963a2.909,2.909,0,0,1,1.448,2.516v15.891a2.909,2.909,0,0,1-1.448,2.516L215.385,224.5a3.525,3.525,0,0,1-1.448.31Zm4.24-10.927c-6.032,0-7.273-2.758-7.273-5.1a.419.419,0,0,1,.414-.414h1.792a.354.354,0,0,1,.379.345c.276,1.827,1.069,2.723,4.722,2.723,2.9,0,4.137-.655,4.137-2.206,0-.9-.345-1.551-4.861-2-3.757-.379-6.1-1.206-6.1-4.205,0-2.792,2.344-4.447,6.274-4.447,4.412,0,6.584,1.517,6.86,4.826a.557.557,0,0,1-.1.311.426.426,0,0,1-.276.138h-1.793a.4.4,0,0,1-.379-.31c-.414-1.9-1.482-2.516-4.309-2.516-3.171,0-3.551,1.1-3.551,1.93,0,1,.448,1.31,4.723,1.861,4.24.552,6.239,1.344,6.239,4.309C225.037,212.161,222.555,213.885,218.177,213.885Z" transform="translate(-197.288 -187.29)" fill="#539e43"/>
</svg>
